<?xml version="1.0" encoding="utf-8"?>
<!-- Generator: Adobe Illustrator 26.3.1, SVG Export Plug-In . SVG Version: 6.00 Build 0)  -->
<svg version="1.1" id="Layer_1" xmlns="http://www.w3.org/2000/svg" xmlns:xlink="http://www.w3.org/1999/xlink" x="0px" y="0px"
	 viewBox="0 0 301.9 50" style="enable-background:new 0 0 301.9 50;" xml:space="preserve">
<style type="text/css">
	.st0{fill:#08111D;}
	.st1{fill:url(#SVGID_1_);}
	.st2{fill:url(#SVGID_00000129893419828971130240000017900280596500609206_);}
	.st3{fill:url(#SVGID_00000000187148040406349930000005631927348193249712_);}
	.st4{fill:url(#SVGID_00000046313941326275991310000006908710176561917831_);}
	.st5{fill:url(#SVGID_00000136389422127916990980000002654521410027461780_);}
	.st6{fill:#00C7FF;}
	.st7{fill:url(#SVGID_00000007423052283366323470000018373472617379810744_);}
	.st8{fill:url(#SVGID_00000034809669934129940720000004102836395984097724_);}
</style>
<path id="interviewME" class="st0" d="M102.4,38.2h2.3c0.2,0,0.4-0.1,0.5-0.2c0.1-0.1,0.2-0.3,0.2-0.4V20.8c0-0.2-0.1-0.3-0.2-0.5
	c-0.1-0.1-0.3-0.2-0.5-0.2h-2.3c-0.2,0-0.4,0.1-0.5,0.2c-0.1,0.1-0.2,0.3-0.2,0.5v16.8c0,0.2,0.1,0.3,0.2,0.4
	C102.1,38.2,102.2,38.2,102.4,38.2z M102,15.3c0.4,0.4,0.9,0.6,1.5,0.6c0.6,0,1.1-0.2,1.5-0.6c0.4-0.4,0.6-0.9,0.6-1.5
	c0-0.6-0.2-1.1-0.6-1.5c-0.4-0.4-0.9-0.6-1.5-0.6c-0.6,0-1.1,0.2-1.5,0.6c-0.4,0.4-0.6,0.9-0.6,1.5C101.4,14.4,101.6,14.9,102,15.3z
	 M122.4,38c0.1,0.1,0.3,0.2,0.5,0.2h2.3c0.2,0,0.4-0.1,0.5-0.2c0.1-0.1,0.2-0.3,0.2-0.4v-9.1c0-1.2-0.2-2.3-0.5-3.3
	c-0.3-1-0.8-1.9-1.4-2.6c-0.6-0.7-1.3-1.3-2.2-1.8c-0.9-0.4-1.9-0.7-3-0.7c-1,0-2,0.2-2.9,0.6c-0.9,0.4-1.6,1-2.3,1.7l-1.5,1.8v-3.5
	c0-0.2-0.1-0.3-0.2-0.5c-0.1-0.1-0.3-0.2-0.5-0.2h-2.3c-0.2,0-0.4,0.1-0.5,0.2c-0.1,0.1-0.2,0.3-0.2,0.5v16.8c0,0.2,0.1,0.3,0.2,0.4
	c0.1,0.1,0.3,0.2,0.5,0.2h2.3c0.2,0,0.4-0.1,0.5-0.2c0.1-0.1,0.2-0.3,0.2-0.4v-9.1c0-0.8,0.2-1.5,0.5-2.1c0.3-0.6,0.7-1.1,1.3-1.6
	c0.5-0.5,1.2-0.8,1.9-1c0.4-0.1,0.8-0.2,1.2-0.2c0.3,0,0.7,0,1,0.1c1.2,0.2,2.2,0.8,2.9,1.7c0.7,0.9,1.1,2,1.1,3.1v8.9
	C122.2,37.8,122.3,37.9,122.4,38z M131.5,34.5c0.3,0.8,0.8,1.4,1.4,2c0.6,0.6,1.3,1,2.1,1.3c0.8,0.3,1.6,0.5,2.5,0.5h2.5
	c0.2,0,0.4-0.1,0.5-0.2c0.1-0.1,0.2-0.3,0.2-0.5v-2.2c0-0.2-0.1-0.3-0.2-0.5c-0.1-0.1-0.3-0.2-0.5-0.2h-2.5c-0.7,0-1.4-0.2-1.9-0.7
	c-0.5-0.5-0.8-1.1-0.8-1.9V23h5.2c0.2,0,0.4-0.1,0.5-0.2l0,0c0.1-0.1,0.2-0.3,0.2-0.5v-1.5c0-0.2-0.1-0.3-0.2-0.5
	c-0.1-0.1-0.3-0.2-0.5-0.2h-5.2v-4.5c0-0.2-0.1-0.3-0.2-0.5c-0.1-0.1-0.3-0.2-0.5-0.2h-2.3c-0.2,0-0.4,0.1-0.5,0.2
	c-0.1,0.1-0.2,0.3-0.2,0.5v4.5h-2.4c-0.2,0-0.4,0.1-0.5,0.2c-0.1,0.1-0.2,0.3-0.2,0.5v1.5c0,0.2,0.1,0.3,0.2,0.5
	c0.1,0.1,0.3,0.2,0.5,0.2h2.4v9.1C131,32.9,131.1,33.7,131.5,34.5z M160.4,34.3c0.1-0.1,0.1-0.1,0-0.3c0-0.2-0.1-0.2-0.2-0.3
	l-2.6-1.3c-0.1,0-0.2,0-0.2,0c-0.1,0-0.2,0.1-0.3,0.2l-0.1,0.1c-0.1,0.1-0.2,0.2-0.4,0.4c-0.2,0.2-0.3,0.3-0.5,0.4
	c-0.9,0.7-2,1.2-3.1,1.3c-2.9,0.2-4.7-1.3-4.7-1.3l12.3-6.7c0.3-0.2,0.5-0.4,0.6-0.7c0.1-0.3,0.1-0.6-0.1-0.9l-0.3-0.6
	c-0.5-0.9-1.1-1.6-1.9-2.3c-0.8-0.7-1.6-1.2-2.5-1.6c-0.9-0.4-1.9-0.7-3-0.8c-0.3,0-0.7-0.1-1-0.1c-0.7,0-1.4,0.1-2.1,0.2
	c-0.9,0.2-1.8,0.6-2.7,1c-0.8,0.5-1.6,1-2.2,1.7c-0.6,0.7-1.2,1.4-1.6,2.2c-0.4,0.8-0.7,1.7-0.9,2.6c-0.2,1.4-0.1,2.8,0.3,4.1
	c0.4,1.3,1.1,2.4,1.9,3.4c0.9,1,2,1.8,3.2,2.3c1.2,0.6,2.6,0.9,4,0.9c1.1,0,2.2-0.2,3.2-0.5c1-0.3,2-0.9,2.8-1.6
	C159.2,35.7,159.9,35.1,160.4,34.3z M149.6,23.9c3.8-1.8,7.1,1,7.1,1l-10.5,5.5C146.3,30.4,144.8,26.2,149.6,23.9z M177.9,22.2
	c0.1-0.1,0.1-0.1,0.1-0.2c0-0.1,0-0.1-0.1-0.2c-0.4-0.3-1-0.7-1.8-1.2c-0.7-0.4-1.5-0.6-2.5-0.6c-1.8,0.1-3,0.9-3.3,1.2
	c-1.3,1.2-2.7,3.4-2.7,3.4v-3.9c0-0.2-0.1-0.3-0.2-0.5c-0.1-0.1-0.3-0.2-0.5-0.2h-2.3c-0.2,0-0.4,0.1-0.5,0.2
	c-0.1,0.1-0.2,0.3-0.2,0.5v16.8c0,0.2,0.1,0.3,0.2,0.4c0.1,0.1,0.3,0.2,0.5,0.2h2.3c0.2,0,0.4-0.1,0.5-0.2c0.1-0.1,0.2-0.3,0.2-0.4
	v-8.2c0-0.6-0.1-3.7,2.5-5.2c2.2-1.3,4.7,0,5.2,0.3c0.1,0,0.1,0,0.2,0c0,0,0,0,0.1-0.1L177.9,22.2z M197.2,20.3
	c-0.1-0.1-0.2-0.2-0.3-0.2h-2.7c-0.2,0-0.4,0.1-0.6,0.2c-0.2,0.1-0.3,0.3-0.4,0.5l-4.4,12l-4.4-12c-0.1-0.2-0.2-0.4-0.4-0.5
	c-0.2-0.1-0.3-0.2-0.6-0.2h-2.7c-0.2,0-0.2,0-0.3,0.2c-0.1,0.2-0.1,0.2-0.1,0.3l6.3,17c0.1,0.2,0.2,0.4,0.4,0.5
	c0.2,0.1,0.3,0.2,0.6,0.2h2.4c0.2,0,0.4-0.1,0.6-0.2c0.2-0.1,0.3-0.3,0.4-0.5l6.3-17C197.2,20.5,197.3,20.4,197.2,20.3z M200.5,38.2
	h2.3c0.2,0,0.4-0.1,0.5-0.2c0.1-0.1,0.2-0.3,0.2-0.4V20.8c0-0.2-0.1-0.3-0.2-0.5c-0.1-0.1-0.3-0.2-0.5-0.2h-2.3
	c-0.2,0-0.4,0.1-0.5,0.2c-0.1,0.1-0.2,0.3-0.2,0.5v16.8c0,0.2,0.1,0.3,0.2,0.4C200.2,38.2,200.3,38.2,200.5,38.2z M200.1,15.3
	c0.4,0.4,0.9,0.6,1.5,0.6c0.6,0,1.1-0.2,1.5-0.6c0.4-0.4,0.6-0.9,0.6-1.5c0-0.6-0.2-1.1-0.6-1.5c-0.4-0.4-0.9-0.6-1.5-0.6
	c-0.6,0-1.1,0.2-1.5,0.6c-0.4,0.4-0.6,0.9-0.6,1.5C199.5,14.4,199.7,14.9,200.1,15.3z M255.7,20.2c-0.1-0.1-0.1-0.1-0.2-0.1h-3.1
	c-0.3,0-0.5,0.1-0.6,0.5l-4.5,12.2l-4.5-12.2c-0.1-0.1-0.1-0.2-0.3-0.3c-0.1-0.1-0.2-0.1-0.4-0.1h-3.6c-0.1,0-0.3,0-0.4,0.1
	c-0.1,0.1-0.2,0.2-0.3,0.3l-4.5,12.2l-4.6-12.2c-0.1-0.1-0.1-0.2-0.3-0.3c-0.1-0.1-0.2-0.1-0.4-0.1h-3.1c-0.1,0-0.1,0-0.2,0.1
	c0,0-0.1,0.1,0,0.2l6.5,17.4c0.1,0.1,0.1,0.2,0.3,0.3c0.1,0.1,0.2,0.1,0.4,0.1h2.8c0.3,0,0.5-0.1,0.6-0.5l4.8-13.2l4.9,13.2
	c0.2,0.4,0.3,0.4,0.6,0.4h2.8c0.1,0,0.3,0,0.4-0.1c0.1-0.1,0.2-0.2,0.3-0.3l6.4-17.4C255.8,20.3,255.8,20.3,255.7,20.2z M281,38.1
	c0.1,0.1,0.3,0.2,0.5,0.2h2.3c0.2,0,0.4-0.1,0.5-0.2s0.2-0.3,0.2-0.5v-22c0-0.2-0.1-0.3-0.2-0.5c-0.1-0.1-0.3-0.2-0.5-0.2h-2.8
	c-0.5,0-0.8,0.2-1.1,0.7l-8.7,19.1l-8.7-19.1c-0.1-0.2-0.2-0.4-0.4-0.5c-0.2-0.1-0.4-0.2-0.6-0.2h-2.8c-0.2,0-0.4,0.1-0.5,0.2
	c-0.1,0.1-0.2,0.3-0.2,0.5v22c0,0.2,0.1,0.3,0.2,0.5c0.1,0.1,0.3,0.2,0.5,0.2h2.3c0.2,0,0.4-0.1,0.5-0.2c0.1-0.1,0.2-0.3,0.2-0.5
	v-15l6.7,14.8c0.1,0.3,0.3,0.5,0.6,0.7c0.3,0.2,0.5,0.2,0.8,0.2h2.8c0.3,0,0.6-0.1,0.8-0.2c0.3-0.2,0.5-0.4,0.6-0.7l6.7-14.8v15
	C280.8,37.8,280.9,37.9,281,38.1z M288,38.3h13.2c0.2,0,0.4-0.1,0.5-0.2c0.1-0.1,0.2-0.3,0.2-0.5v-1.5c0-0.2-0.1-0.3-0.2-0.5
	c-0.1-0.1-0.3-0.2-0.5-0.2h-11V28h9c0.2,0,0.4-0.1,0.5-0.2c0.1-0.1,0.2-0.3,0.2-0.5v-1.5c0-0.2-0.1-0.3-0.2-0.5
	c-0.1-0.1-0.3-0.2-0.5-0.2h-9v-7.4h11c0.2,0,0.4-0.1,0.5-0.2l0,0c0.1-0.1,0.2-0.3,0.2-0.5v-1.5c0-0.2-0.1-0.3-0.2-0.5
	c-0.1-0.1-0.3-0.2-0.5-0.2H288c-0.4,0-0.8,0.1-1,0.4c-0.3,0.3-0.4,0.6-0.4,1v20.5c0,0.4,0.1,0.7,0.4,1
	C287.2,38.1,287.6,38.3,288,38.3z M223.3,34.3c0.1-0.1,0.1-0.1,0-0.3c0-0.2-0.1-0.2-0.2-0.3l-2.6-1.3c-0.1,0-0.2,0-0.2,0
	c-0.1,0-0.2,0.1-0.3,0.2l-0.1,0.1c-0.1,0.1-0.2,0.2-0.4,0.4c-0.2,0.2-0.3,0.3-0.5,0.4c-0.9,0.7-2,1.2-3.1,1.3
	c-2.9,0.2-4.7-1.3-4.7-1.3l12.3-6.7c0.3-0.2,0.5-0.4,0.6-0.7c0.1-0.3,0.1-0.6-0.1-0.9l-0.3-0.6c-0.5-0.9-1.1-1.6-1.9-2.3
	c-0.8-0.7-1.6-1.2-2.5-1.6c-0.9-0.4-1.9-0.7-3-0.8c-0.3,0-0.7-0.1-1-0.1c-0.7,0-1.4,0.1-2.1,0.2c-0.9,0.2-1.8,0.6-2.7,1
	c-0.8,0.5-1.6,1-2.2,1.7c-0.6,0.7-1.2,1.4-1.6,2.2c-0.4,0.8-0.7,1.7-0.9,2.6c-0.2,1.4-0.1,2.8,0.3,4.1c0.4,1.3,1.1,2.4,1.9,3.4
	c0.9,1,2,1.8,3.2,2.3c1.2,0.6,2.6,0.9,4,0.9c1.1,0,2.2-0.2,3.2-0.5c1-0.3,2-0.9,2.8-1.6C222.1,35.7,222.7,35.1,223.3,34.3z
	 M212.5,23.9c3.8-1.8,7.1,1,7.1,1l-10.5,5.5C209.2,30.4,207.7,26.2,212.5,23.9z"/>
<g id="iME">
	
		<linearGradient id="SVGID_1_" gradientUnits="userSpaceOnUse" x1="64.2088" y1="284.4994" x2="90.2953" y2="284.4994" gradientTransform="matrix(1 0 0 -1 0 329.8898)">
		<stop  offset="0" style="stop-color:#FC8A39"/>
		<stop  offset="1" style="stop-color:#FBAC00"/>
	</linearGradient>
	<path class="st1" d="M58.4,40.9h29.3c0.9,0,1.6,0.3,2.2,0.9c0.6,0.6,0.9,1.3,0.9,2.1v3c0,0.8-0.3,1.5-0.9,2.1
		c-0.6,0.6-1.3,0.9-2.2,0.9H63c-2.6,0-4.7-2-4.7-4.5V40.9z"/>
	
		<linearGradient id="SVGID_00000042715921065296420450000000602430039042166166_" gradientUnits="userSpaceOnUse" x1="4.8624" y1="280.454" x2="4.8624" y2="316.5881" gradientTransform="matrix(1 0 0 -1 0 329.8898)">
		<stop  offset="0" style="stop-color:#356FFF"/>
		<stop  offset="0.9998" style="stop-color:#1A9BFF"/>
	</linearGradient>
	<path style="fill:url(#SVGID_00000042715921065296420450000000602430039042166166_);" d="M6.9,12.5c0.8,0,1.4,0.3,2,0.9
		c0.5,0.6,0.8,1.3,0.8,2.1v31.6c0,0.8-0.3,1.5-0.8,2S7.7,50,6.9,50H2.8c-0.8,0-1.4-0.3-2-0.9S0,47.9,0,47.1V15.5
		c0-0.8,0.3-1.5,0.8-2.1c0.5-0.6,1.2-0.9,2-0.9H6.9z"/>
	
		<linearGradient id="SVGID_00000043416017407839965340000010930022923836646586_" gradientUnits="userSpaceOnUse" x1="49.8326" y1="280.6543" x2="49.8326" y2="328.9262" gradientTransform="matrix(1 0 0 -1 0 329.8898)">
		<stop  offset="0" style="stop-color:#FF0079"/>
		<stop  offset="1" style="stop-color:#FF0079"/>
	</linearGradient>
	<path style="fill:url(#SVGID_00000043416017407839965340000010930022923836646586_);" d="M46.6,0.2h5.5c0.8,0,1.6,0.3,2.1,0.9
		c0.6,0.6,0.9,1.3,0.9,2.1V47c0,0.8-0.3,1.5-0.9,2.1c-0.6,0.6-1.3,0.9-2.1,0.9h-4.5c-0.8,0-1.6-0.3-2.1-0.9
		c-0.6-0.6-0.9-1.3-0.9-2.1V24.8L46.6,0.2z"/>
	
		<linearGradient id="SVGID_00000101785254224554004970000000795208881868720541_" gradientUnits="userSpaceOnUse" x1="64.3118" y1="304.9671" x2="86.1019" y2="304.9671" gradientTransform="matrix(1 0 0 -1 0 329.8898)">
		<stop  offset="0" style="stop-color:#FC8A39"/>
		<stop  offset="1" style="stop-color:#FBAC00"/>
	</linearGradient>
	<path style="fill:url(#SVGID_00000101785254224554004970000000795208881868720541_);" d="M58.4,20.5h25.4c0.9,0,1.6,0.3,2.2,0.9
		c0.6,0.6,0.9,1.3,0.9,2.1v3c0,0.8-0.3,1.5-0.9,2.1c-0.6,0.6-1.3,0.9-2.2,0.9H58.4V20.5z"/>
	
		<linearGradient id="SVGID_00000183210768894897889430000002935082887182747542_" gradientUnits="userSpaceOnUse" x1="74.5652" y1="280.661" x2="74.5652" y2="329.1089" gradientTransform="matrix(1 0 0 -1 0 329.8898)">
		<stop  offset="0" style="stop-color:#FF6852"/>
		<stop  offset="1" style="stop-color:#FF4167"/>
	</linearGradient>
	<path style="fill:url(#SVGID_00000183210768894897889430000002935082887182747542_);" d="M69.1,49.8H63c-1.3,0-2.4-0.4-3.3-1.3
		c-0.9-0.9-1.3-1.9-1.3-3.1V4.5c0-1.3,0.4-2.3,1.3-3.2C60.6,0.4,61.7,0,63,0h24.7c0.9,0,1.6,0.3,2.2,0.9c0.6,0.6,0.9,1.3,0.9,2.1v3
		c0,0.8-0.3,1.5-0.9,2.1c-0.6,0.6-1.3,0.9-2.2,0.9H69.1"/>
	<path class="st6" d="M4.9,9.4C3.5,9.4,2.4,8.9,1.4,8C0.5,7.1,0,6,0,4.7c0-1.3,0.5-2.4,1.4-3.3C2.4,0.5,3.5,0,4.9,0
		c1.4,0,2.5,0.5,3.4,1.4c0.9,0.9,1.4,2,1.4,3.3C9.7,6,9.3,7.1,8.3,8C7.4,8.9,6.2,9.4,4.9,9.4z"/>
	
		<linearGradient id="SVGID_00000065074566735359640880000004538969283169337786_" gradientUnits="userSpaceOnUse" x1="50.0361" y1="329.2756" x2="28.3022" y2="284.2473" gradientTransform="matrix(1 0 0 -1 0 329.8898)">
		<stop  offset="0" style="stop-color:#B40CBC"/>
		<stop  offset="0.9301" style="stop-color:#9211DB"/>
		<stop  offset="1" style="stop-color:#8F11DE"/>
	</linearGradient>
	<path style="fill:url(#SVGID_00000065074566735359640880000004538969283169337786_);" d="M44.6,24.8l-10,22.4
		c-0.4,0.9-1,1.6-1.8,2.1C32,49.8,31.2,50,30.3,50h-5.4c-0.9,0-1.7-0.2-2.5-0.7c-0.8-0.5-1.4-1.2-1.7-2.1L43,2.4
		c0.7-1.5,1.9-2.3,3.6-2.3h5.5c0.8,0,1.6,0.3,2.1,0.9c0.6,0.6,0.9,1.3,0.9,2.1L44.6,24.8z"/>
	
		<linearGradient id="SVGID_00000106837416503436003810000006014733161888017596_" gradientUnits="userSpaceOnUse" x1="13.79" y1="315.9176" x2="28.2048" y2="280.3701" gradientTransform="matrix(1 0 0 -1 0 329.8898)">
		<stop  offset="2.893519e-04" style="stop-color:#4F43FF"/>
		<stop  offset="0.9961" style="stop-color:#6917FF"/>
		<stop  offset="0.9998" style="stop-color:#6917FF"/>
	</linearGradient>
	<path style="fill:url(#SVGID_00000106837416503436003810000006014733161888017596_);" d="M13,15v12.4c0,1.8,0.4,3.7,1.1,5.4
		l6.5,14.5c0.4,0.9,1,1.6,1.7,2.1c0.8,0.5,1.6,0.7,2.5,0.7h5.4c0.9,0,1.7-0.2,2.5-0.7c0.8-0.5,1.4-1.2,1.8-2.1L17.8,13.9
		C16.6,11.5,13,12.3,13,15z"/>
</g>
</svg>
